<svg width="264" height="153" viewBox="0 0 264 153" fill="none" xmlns="http://www.w3.org/2000/svg">
<rect x="5" y="5" width="254" height="143" rx="14" fill="white" stroke="#EE1C1C" stroke-width="10"/>
<rect x="24" y="27" width="59" height="23" rx="7" fill="#EE1C1C"/>
<rect x="24" y="27" width="59" height="23" rx="7" fill="#EE1C1C"/>
<rect x="24" y="27" width="59" height="23" rx="7" fill="#EE1C1C"/>
<rect x="24" y="27" width="59" height="23" rx="7" fill="#EE1C1C"/>
<rect x="24" y="27" width="59" height="23" rx="7" fill="#EE1C1C"/>
<rect x="24" y="79" width="59" height="7" rx="3.5" fill="#EE1C1C"/>
<rect x="24" y="79" width="59" height="7" rx="3.5" fill="#EE1C1C"/>
<rect x="24" y="79" width="59" height="7" rx="3.5" fill="#EE1C1C"/>
<rect x="24" y="79" width="59" height="7" rx="3.5" fill="#EE1C1C"/>
<rect x="24" y="79" width="59" height="7" rx="3.5" fill="#EE1C1C"/>
<rect x="24" y="101" width="46" height="7" rx="3.5" fill="#EE1C1C"/>
<rect x="24" y="101" width="46" height="7" rx="3.5" fill="#EE1C1C"/>
<rect x="24" y="101" width="46" height="7" rx="3.5" fill="#EE1C1C"/>
<rect x="24" y="101" width="46" height="7" rx="3.5" fill="#EE1C1C"/>
<rect x="24" y="101" width="46" height="7" rx="3.5" fill="#EE1C1C"/>
<rect x="24" y="124" width="33" height="7" rx="3.5" fill="#EE1C1C"/>
<rect x="24" y="124" width="33" height="7" rx="3.5" fill="#EE1C1C"/>
<rect x="24" y="124" width="33" height="7" rx="3.5" fill="#EE1C1C"/>
<rect x="24" y="124" width="33" height="7" rx="3.5" fill="#EE1C1C"/>
<rect x="24" y="124" width="33" height="7" rx="3.5" fill="#EE1C1C"/>
<rect x="105" y="79" width="59" height="7" rx="3.5" fill="#EE1C1C"/>
<rect x="105" y="79" width="59" height="7" rx="3.5" fill="#EE1C1C"/>
<rect x="105" y="79" width="59" height="7" rx="3.5" fill="#EE1C1C"/>
<rect x="105" y="79" width="59" height="7" rx="3.5" fill="#EE1C1C"/>
<rect x="105" y="79" width="59" height="7" rx="3.5" fill="#EE1C1C"/>
<rect x="180" y="79" width="59" height="7" rx="3.5" fill="#EE1C1C"/>
<rect x="180" y="79" width="59" height="7" rx="3.5" fill="#EE1C1C"/>
<rect x="180" y="79" width="59" height="7" rx="3.5" fill="#EE1C1C"/>
<rect x="180" y="79" width="59" height="7" rx="3.5" fill="#EE1C1C"/>
<rect x="180" y="79" width="59" height="7" rx="3.5" fill="#EE1C1C"/>
<rect x="193" y="27" width="46" height="23" rx="7" fill="#EE1C1C"/>
<rect x="193" y="27" width="46" height="23" rx="7" fill="#EE1C1C"/>
<rect x="193" y="27" width="46" height="23" rx="7" fill="#EE1C1C"/>
<rect x="193" y="27" width="46" height="23" rx="7" fill="#EE1C1C"/>
<rect x="193" y="27" width="46" height="23" rx="7" fill="#EE1C1C"/>
</svg>
